<svg xmlns="http://www.w3.org/2000/svg" viewBox="0 0 553 127" width="553" height="127" preserveAspectRatio="xMidYMid meet">
  <defs>
    <linearGradient id="lemeGrey" x1="0" y1="0" x2="1" y2="0">
      <stop offset="0%" stop-color="rgb(47, 60, 63)"/>
      <stop offset="25%" stop-color="rgb(103, 109, 109)"/>
      <stop offset="50%" stop-color="rgb(142, 142, 142)"/>
      <stop offset="75%" stop-color="rgb(126, 129, 129)"/>
      <stop offset="100%" stop-color="rgb(156, 156, 156)"/>
    </linearGradient>
  </defs>
  <path d="M 0 120 L 7 121 L 8 122 L 12 122 L 13 123 L 19 123 L 20 124 L 46 125 L 47 124 L 58 124 L 59 123 L 71 122 L 72 121 L 76 121 L 88 117 L 91 117 L 100 114 L 103 112 L 105 112 L 108 110 L 110 110 L 132 99 L 149 88 L 163 77 L 170 70 L 175 67 L 191 82 L 208 95 L 211 96 L 221 103 L 237 111 L 239 111 L 252 117 L 258 118 L 262 120 L 265 120 L 269 122 L 273 122 L 279 124 L 284 124 L 285 125 L 293 125 L 294 126 L 322 126 L 323 125 L 330 125 L 331 124 L 336 124 L 337 123 L 348 121 L 331 115 L 325 114 L 322 112 L 317 111 L 316 109 L 334 100 L 336 98 L 347 92 L 368 76 L 378 66 L 397 84 L 418 99 L 443 112 L 445 112 L 448 114 L 450 114 L 453 116 L 462 119 L 465 119 L 473 122 L 482 123 L 483 124 L 497 125 L 498 126 L 525 126 L 526 125 L 534 125 L 535 124 L 539 124 L 540 123 L 544 123 L 545 122 L 551 121 L 515 109 L 505 104 L 503 104 L 492 98 L 490 98 L 488 96 L 472 88 L 451 74 L 434 60 L 408 34 L 393 14 L 387 4 L 382 0 L 376 0 L 372 3 L 362 18 L 351 32 L 325 58 L 298 79 L 276 92 L 253 78 L 229 59 L 201 30 L 183 4 L 178 0 L 172 0 L 169 2 L 154 24 L 139 40 L 139 41 L 119 60 L 97 77 L 80 88 L 55 101 L 53 101 L 48 104 L 46 104 L 33 110 Z" fill="url(#lemeGrey)"/>
</svg>